<svg xmlns="http://www.w3.org/2000/svg" width="44" height="47" viewBox="0 0 44 47">
  <g id="Group_34" data-name="Group 34" transform="translate(-1637.32 -689)">
    <rect id="Rectangle_12" data-name="Rectangle 12" width="44" height="47" rx="22" transform="translate(1637.32 689)" fill="#301a17"/>
    <g id="down-arrow" transform="translate(1663.724 703.563) rotate(90)">
      <g id="Group_1" data-name="Group 1" transform="translate(0 0)">
        <path id="Path_1" data-name="Path 1" d="M17.225.146a.317.317,0,0,0-.533,0L8.668,10.75.643.147a.317.317,0,0,0-.533,0,.617.617,0,0,0,0,.7L8.4,11.807a.339.339,0,0,0,.267.145.335.335,0,0,0,.266-.146L17.225.85A.618.618,0,0,0,17.225.146Z" fill="#5b5050" stroke="#474747" stroke-linecap="round" stroke-width="2"/>
      </g>
    </g>
  </g>
</svg>
