<svg id="Layer_1" data-name="Layer 1" xmlns="http://www.w3.org/2000/svg" viewBox="0 0 748 505"><defs><style>.cls-1{fill:none;stroke:#fff;stroke-miterlimit:10;}.cls-2{fill:#fff;}</style></defs><title>logo3</title><path class="cls-1" d="M348.11.5H525.5c-.25.2-.48.55-.76.59-22.24,3.5-33.84,17.53-38.37,38.57-3.71,17.25-7.3,34.51-11,51.75-.4,1.85-.92,4.56-2.2,5.17-6.67,3.18-13.67,5.06-20.67,4.51-1.38-7.31-2.13-14.28-4.07-20.9-3-10.24-10.05-16.93-20.76-18.61-18-2.81-34.27,1.37-47.28,14.51-22.67,22.9-30.9,51.2-28.66,82.69.94,13.17,8.32,22.66,21,27.26a49.89,49.89,0,0,0,28.54,1.77c17.5-4,29-15.54,37.36-30.74,6.77-12.3,10-25.66,11.84-39.45.2-1.46,1.24-3.66,2.36-4,6-1.87,12.13-3.27,18.5-4.9a21.83,21.83,0,0,1-.25,2.91c-4.9,23.45-9.88,46.89-14.69,70.36-.61,3-2.12,4.29-4.88,5.4-9.05,3.67-18.56,6.75-26.76,11.88-11.25,7.06-15.16,20.48-11.25,32.48,3.51,10.72,15,18.51,27.55,18.75s23.55-3.64,32.6-12.93c6.61,9.05,15.56,12.71,26.06,12.9,20.39.38,36.49-11.45,42.51-32.55,4.19-14.69,7-29.8,10.17-44.76,6.8-31.9,13.43-63.83,20.26-95.72.34-1.58,2-4.07,3.05-4.11,9.09-.33,18.2-.19,27.4-.19-.1,1.2-.09,1.7-.19,2.18-4.63,22.16-9.62,44.24-13.71,66.49a98.71,98.71,0,0,0-1.42,26.69c1.15,12.35,11.12,20.59,23.57,20.92,15.75.41,28.77-5.8,39.44-17.22,1.17-1.25,2.28-2.56,3.51-3.95,10.75,19,29.52,25.78,52.19,19.18,14.64-4.27,27.15-20.12,26.48-33.89-1.6,1.15-3,2.26-4.54,3.24-7.61,5-15.49,9.16-25,8.82-6.19-.22-10.95-3.12-12.41-9-1.52-6.09-1.58-12.55-2.27-18.74,3.93-.61,6.43-.87,8.86-1.4,20.86-4.47,37.39-14.81,46.11-35.07,2-4.65,2.56-9.92,3.78-14.91v418h-233c1.07-.6,2.09-1.61,3.22-1.73C538,500.49,550.35,489,555.6,469.66c2.12-7.86,3.63-15.89,5.6-23.79.35-1.4,1.33-3.37,2.44-3.72a63.26,63.26,0,0,0,30.9-21c11.7,18.62,30.24,25,52.42,18.19,14.37-4.39,26.61-20.12,26-33.76-1.61,1.14-3,2.25-4.55,3.24-7.61,5-15.49,9.16-25,8.82-6.19-.22-11-3.11-12.42-9-1.52-6.1-1.58-12.55-2.29-18.94,14.51-1.36,26.59-5.41,37-13.42,14.18-10.88,22.57-24.81,21-43.37-.91-10.56-6.8-17.37-17.26-19.16-18.48-3.17-35.2.76-48.8,14.27-19.81,19.68-27,44.56-28.56,71.56-.77,13.66-13.65,28.59-27.83,31.06,8.16-38.35,16.29-76.5,24.47-114.91h-36q-8.62,40.5-17.15,80.73A27.71,27.71,0,0,1,522.1,415.4c-5,2.94-10.73,3.79-15.61.32-4.43-3.16-3.25-8.42-2.31-13,3.22-15.64,6.62-31.25,10-46.88,2.15-10,4.29-20.08,6.5-30.42H535.5c.68-3.4,1.29-6.44,2-10.07H522.62L531,276c-10.63,1.43-20.44,3.2-30.32,3.9-5.68.41-7.44,2.79-8.32,8-1.55,9.26-3.92,18.39-5.9,27.39-9.26.46-9.61.85-9.52,10.06l7.5.41c-3.58,16.67-6.89,33-10.61,49.18-2.08,9-4.14,18.18-7.55,26.75-2,5.14-6.09,9.88-10.28,13.65-3.9,3.5-9.48,3.37-14.16.85-4.51-2.42-3.37-7.15-3.29-11.25a16,16,0,0,1,.44-3q6.12-28.8,12.26-57.61c2-9.49,3.93-19,6-28.88-11.07,0-21.39.11-31.71-.07-3.24,0-4.52.82-5.21,4.2-5.08,24.78-10.06,49.59-15.95,74.18-1.64,6.85-5.61,13.42-9.67,19.32-3.22,4.69-10.42,5.92-14,3.65-4.53-2.9-4-7.63-3.76-12.15a11.43,11.43,0,0,1,.33-2L387,355.68c2.78-13.27,5.59-26.55,8.42-40h-35.8c-.37,1.19-.74,2.13-.94,3.1-5.08,23.93-10.1,47.87-15.24,71.79-.47,2.18-1.22,4.72-2.72,6.19A214.27,214.27,0,0,1,323,412.84c-8.1,6.34-17.77,8.13-27.86,7.4-8.65-.62-13-4.27-14.12-12.71-.76-5.85-.15-11.87-.15-17.75,19.66-3.55,29.28-7.45,39.41-16.22,11.37-9.87,18.09-22.12,18-37.47-.08-13.21-6.86-21-19.78-22.78-19.69-2.66-36.54,2.92-49.91,18-17.08,19.22-24.07,42.35-25,67.41-.3,7.86-4,12.35-9.71,16.12-5,3.34-10.93,4.37-16.07,1.08s-3.59-8.89-2.57-13.77Q225.51,353.36,236,304.5c2.72-12.81,5.44-25.61,8.3-39.09-12,1.65-23.34,3.09-34.63,4.92-1.26.21-2.8,2.5-3.14,4.06-7.72,35.45-15.46,70.89-22.8,106.41-2.31,11.2-4.67,22.62-4.9,34-.36,18.26,11.92,28.86,30,26.77a52.85,52.85,0,0,0,18.88-5.77c6.83-3.71,12.67-9.25,18.87-13.94,4.54,10.86,13.72,17,25.94,18.78,24.85,3.67,45-5.42,61.92-23.1,1.79-1.88,3.51-3.82,5.88-6.42.13,2.4.18,3.82.29,5.25,1.41,17.46,12.88,27.07,30.32,25.37,11.39-1.11,20.52-6.34,27.57-15.3,1.8-2.28,3.55-4.58,5.57-7.2.51,1.95.84,3.24,1.18,4.53,3.1,11.8,10.32,17.68,22.51,18.15a38,38,0,0,0,22.84-6.05c6.27-4.17,11.87-9.33,17.74-14,2.69,11.81,10.41,19.49,23.56,19.82a53.5,53.5,0,0,0,18.51-3c6.32-2.2,12-6.14,17.9-9.26-.51,7.14-2.16,12.68-11.13,15.63-8.55,2.82-16.64,8.39-23.64,14.29-8.44,7.1-10.57,17.24-7.15,27.83,3.26,10.14,11.59,13.94,21.38,15.51,1.33.2,2.51,1.18,3.76,1.81H.5V46.5c3.24,8.56,8.85,14.26,18.56,13.3,4.21-.41,8.25-2.64,11.06-3.6,1.29,7.5,1.28,16.47,4.55,24,3.89,9,13.54,9.45,21.13,9.68-.42-8.69-1.54-17.08-1.08-25.38.78-13.79,4.18-26.78,17.17-34.75,9.72-5.95,20.44-7.45,32.28-7.16C92.32,77.87,80.58,132.7,68.71,188.11c11.27,0,21.58-.12,31.89.08,3.38.06,4.45-1.18,5.13-4.4Q119.5,118.84,133.57,54c1.88-8.72,3.82-17.43,5.76-26.28,1.22.19,1.86.28,2.49.4,13.58,2.48,27.05,5.86,41.05,4.63,17.21-1.52,27.12-13.25,26-31-3.53,1-7,2.06-10.5,2.84-24.36,5.38-48-2-71.87-4h165c-1.95.31-3.89.68-5.85.91-27.63,3.24-51,14.71-68.84,36.32-8.05,9.73-12.05,20.94-10.44,33.84,1.58,12.68,13.14,20.83,25.82,18-9.75-28.69,5.79-62.22,31.77-70C252,75.93,240,132,228,188.24H264c.23-.89.42-1.52.55-2.15,6.25-29.28,12.46-58.57,18.82-87.83.35-1.63,1.67-3.9,3-4.33,10.92-3.47,19.47,2.19,20.7,13.51a24.61,24.61,0,0,1-.24,7.94c-3.47,15.4-7.4,30.7-10.65,46.14a88,88,0,0,0-1.63,18.75c.05,4.78,3.05,8.56,7.58,10.3,11.84,4.56,23.21,1.19,35.52-2-8.3-5.71-10.09-13.06-8.75-21.3,1-6.39,2.84-12.65,4.11-19,2.62-13.18,6.33-26.29,7.34-39.6,1.24-16.19-7.82-25.07-24-26.25-4.65-.34-9.36,0-15.33,0C324.5,55.24,347.06,29.29,370.5,2.33c-8,0-14.79.19-21.52-.07a8.46,8.46,0,0,0-.87,0,8.31,8.31,0,0,0-7,3.87c-16.21,22-32.61,43.81-49,65.69-.94,1.26-2,2.45-3,3.67l-.86-.43c5.12-24.33,10.27-48.65,15.45-73.11L295.5.5Z" transform="translate(0 0)"/><path class="cls-1" d="M575,301.66c11.27.09,20.22-8.52,20.31-19.53.08-10.57-8.35-19.55-18.43-19.63-12.91-.1-21.39,7.63-21.4,19.49a19.33,19.33,0,0,0,19,19.67Z" transform="translate(0 0)"/><path class="cls-1" d="M710.84,402.34c-11.21.06-19.6,8.76-19.5,20.2A19.34,19.34,0,0,0,710.57,442h.51a19.83,19.83,0,1,0,.62-39.66Z" transform="translate(0 0)"/><path class="cls-2" d="M511.5,504.5c-1.25-.63-2.43-1.61-3.74-1.82-9.79-1.57-18.12-5.37-21.38-15.51-3.42-10.59-1.29-20.73,7.15-27.83,7-5.9,15.09-11.47,23.64-14.29,9-2.95,10.62-8.49,11.13-15.63-5.87,3.12-11.58,7.06-17.9,9.26a53.5,53.5,0,0,1-18.51,3c-13.15-.33-20.87-8-23.56-19.82-5.87,4.7-11.47,9.86-17.74,14a38,38,0,0,1-22.84,6.05c-12.19-.47-19.41-6.35-22.51-18.15-.34-1.29-.67-2.58-1.18-4.53-2,2.62-3.77,4.92-5.57,7.2-7.05,9-16.18,14.19-27.57,15.3-17.44,1.7-28.91-7.91-30.32-25.37-.11-1.43-.16-2.85-.29-5.25-2.37,2.6-4.09,4.54-5.88,6.42-16.93,17.71-37.07,26.8-61.93,23.13-12.22-1.81-21.4-7.92-25.94-18.78-6.2,4.69-12,10.23-18.87,13.94a52.85,52.85,0,0,1-18.88,5.77c-18.1,2.09-30.38-8.51-30-26.77.23-11.36,2.59-22.78,4.9-34,7.34-35.52,15.08-71,22.8-106.41.34-1.56,1.88-3.85,3.14-4.06,11.29-1.83,22.64-3.27,34.63-4.92-2.86,13.48-5.58,26.28-8.3,39.09q-10.38,48.83-20.72,97.67c-1,4.88-2.45,10.55,2.57,13.77s11,2.26,16.07-1.08c5.68-3.77,9.41-8.26,9.71-16.12.94-25.06,7.93-48.19,25-67.41,13.37-15.05,30.22-20.63,49.91-18,12.92,1.75,19.7,9.57,19.78,22.78.09,15.35-6.63,27.6-18,37.47-10.13,8.77-19.75,12.67-39.41,16.22,0,5.88-.61,11.9.15,17.75,1.09,8.44,5.47,12.09,14.12,12.71,10.09.73,19.76-1.06,27.86-7.4a212.51,212.51,0,0,0,17.73-16.08c1.5-1.47,2.25-4,2.72-6.19,5.14-23.92,10.16-47.86,15.24-71.79.2-1,.57-1.91.94-3.1H395.5c-2.83,13.42-5.64,26.7-8.42,40q-4.9,23.46-9.75,46.92a11.43,11.43,0,0,0-.33,2c-.24,4.52-.77,9.25,3.76,12.15,3.53,2.27,10.73,1,14-3.65,4.06-5.9,8-12.47,9.67-19.32,5.89-24.59,10.87-49.4,15.95-74.18.69-3.38,2-4.25,5.21-4.2,10.32.18,20.64.07,31.71.07-2.05,9.88-4,19.39-6,28.88Q445.2,373.21,439,402a16,16,0,0,0-.44,3c-.08,4.1-1.22,8.83,3.29,11.25,4.68,2.52,10.26,2.65,14.16-.85,4.19-3.77,8.24-8.51,10.28-13.65,3.41-8.57,5.47-17.72,7.55-26.75,3.72-16.21,7-32.51,10.61-49.18l-7.5-.41c-.09-9.21.26-9.6,9.52-10.06,2-9,4.35-18.13,5.9-27.39.88-5.2,2.64-7.58,8.32-8,9.88-.7,19.69-2.47,30.32-3.9l-8.35,39.33h14.8c-.73,3.63-1.34,6.67-2,10.07H520.6c-2.21,10.34-4.35,20.38-6.5,30.42-3.33,15.63-6.73,31.24-10,46.88-.94,4.57-2.12,9.83,2.31,13,4.88,3.47,10.6,2.62,15.61-.32A27.72,27.72,0,0,0,535.5,396.5c5.67-26.86,11.4-53.7,17.15-80.73h36c-8.18,38.41-16.31,76.56-24.47,114.91,14.18-2.47,27.06-17.4,27.83-31.06,1.52-27,8.75-51.88,28.56-71.56,13.6-13.51,30.32-17.44,48.8-14.27,10.46,1.79,16.35,8.6,17.26,19.16,1.62,18.56-6.77,32.49-21,43.37-10.43,8-22.51,12.06-37,13.42.71,6.39.77,12.84,2.29,18.94,1.46,5.86,6.23,8.75,12.42,9,9.51.34,17.39-3.86,25-8.82,1.51-1,2.94-2.1,4.55-3.24.58,13.64-11.66,29.37-26,33.76-22.18,6.78-40.72.43-52.42-18.19a63.26,63.26,0,0,1-30.9,21c-1.11.35-2.09,2.32-2.44,3.72-2,7.9-3.48,15.93-5.6,23.79-5.25,19.38-17.57,30.83-37.88,33.11-1.13.12-2.15,1.13-3.22,1.73ZM282.75,377.31a31.63,31.63,0,0,0,3.23-.19c18.58-3.46,34-23,32.73-42.08-.19-2.85-1.62-7.29-3.53-8-2.73-.94-6.89.17-9.57,1.81a20.59,20.59,0,0,0-7.27,8c-4.39,8.71-8.36,17.65-12,26.69C284.61,367.79,284,372.42,282.75,377.31Zm348.66-.19c18.18.62,39.79-22.56,35.77-45.69-.84-4.83-5-6.94-9.49-4.42a28.82,28.82,0,0,0-9.15,8.15c-8.87,12.51-13.7,26.77-17.13,42ZM522.92,454.17c-8.53,3.4-16.32,6.54-21.54,13.65-3.81,5.19-3.25,11.28,1,14.2s9.17,1.48,13-4.19C520,470.94,521.58,463,522.92,454.17Z" transform="translate(0 0)"/><path class="cls-2" d="M747.5,86.5c-1.22,5-1.78,10.26-3.78,14.91C735,121.67,718.5,132,697.61,136.5c-2.43.53-4.93.79-8.86,1.4.69,6.19.75,12.65,2.27,18.74,1.46,5.86,6.22,8.76,12.41,9,9.51.34,17.39-3.85,25-8.82,1.51-1,2.94-2.09,4.54-3.24.67,13.77-11.84,29.62-26.48,33.89-22.67,6.6-41.44-.15-52.19-19.18-1.23,1.39-2.34,2.7-3.51,4-10.67,11.42-23.69,17.63-39.44,17.22-12.45-.33-22.42-8.57-23.57-20.92a99.12,99.12,0,0,1,1.43-26.69c4.09-22.25,9.08-44.33,13.71-66.49.1-.48.09-1,.19-2.18-9.2,0-18.31-.14-27.4.19-1.1,0-2.71,2.53-3.05,4.11-6.83,31.89-13.46,63.82-20.26,95.72-3.19,15-6,30.07-10.17,44.76-6,21.1-22.12,32.93-42.51,32.55-10.5-.19-19.45-3.85-26.06-12.9-9.05,9.29-20,13.18-32.6,12.93s-24-8-27.55-18.75c-3.92-12-.05-25.42,11.27-32.49,8.2-5.13,17.71-8.21,26.76-11.88,2.76-1.11,4.27-2.4,4.88-5.4,4.81-23.47,9.79-46.91,14.69-70.36a21.83,21.83,0,0,0,.25-2.91c-6.37,1.63-12.51,3-18.5,4.9-1.12.35-2.16,2.55-2.36,4-1.85,13.79-5.07,27.15-11.84,39.45-8.37,15.2-19.86,26.72-37.36,30.74a49.89,49.89,0,0,1-28.54-1.77c-12.71-4.6-20.09-14.09-21-27.26-2.24-31.49,6-59.79,28.66-82.69C393.42,63,409.7,58.8,427.7,61.61c10.71,1.68,17.74,8.37,20.76,18.61,1.94,6.62,2.69,13.59,4.07,20.9,7,.55,14-1.33,20.64-4.51,1.28-.61,1.8-3.32,2.2-5.17,3.73-17.24,7.32-34.5,11-51.75,4.53-21.07,16.13-35.1,38.37-38.6.28,0,.51-.39.76-.59h11c9.69,1.92,18.92,4.78,24.73,12.3,6-3.13,11.3-6.35,16.94-8.62,4.53-1.82,9.54-2.5,14.33-3.68h14c1.79.33,3.62.52,5.35,1,7,2,14.33,3.35,20.84,6.42,9.84,4.64,13.89,17,10.7,29-2.19,8.23-9.47,12.93-19.69,12.7-8-.18-12.85-3.73-14-10.14-1.46-8,1.81-13.49,9.91-16.4-.3-4.73-3.37-7.11-7.5-8-8.9-2-17.17-.47-23,7A43.72,43.72,0,0,0,581.65,36c-2.6,8.54-4.07,17.43-6.19,26.91h66c0,1-.11,2-.24,3.07Q634.14,99.43,627,132.85c-1.44,6.83-3.06,13.65-4.09,20.55-1.15,7.78,1.86,11.42,9,11.85,9.66.58,19.55-8.42,20.15-18.06,1.62-26.07,8.56-50.11,27-69.68C690.85,65,705.56,60,722.34,60.8c15.33.72,21.29,6,24.56,20.9q.26.92.6,1.8Zm-359,59.43c0,1.66-.13,3.34,0,5,.53,5.74.16,12,7.05,14.65,6.22,2.39,11.84.38,17.52-6.14a37.15,37.15,0,0,0,3.31-4.37c7.32-11.42,10.93-24.16,13-37.39a4.56,4.56,0,0,0-.91-3.49c-7.27-7.21-7.15-15.86.43-22.62.69-.62,1.83-1.64,1.68-2.17-1.14-4-1.5-9.17-4.22-11.53-2.11-1.84-8-1.41-10.91.26-4,2.25-7.42,6.22-9.93,10.18C394.5,105.85,389.4,125.32,388.5,145.93Zm105.11,32.93c6.3-1.05,11.95-2.27,17.67-2.86,3.52-.36,4.59-2.1,5.24-5.22,4.83-23.44,9.82-46.84,14.73-70.26,1.87-8.89,3.66-17.8,5.63-27.4-5.93,0-11.21.15-16.48-.06-3.19-.13-4.6.76-5.28,4.16-3.7,18.41-7.72,36.76-11.63,55.13-3.26,15.23-6.5,30.46-9.91,46.51Zm197.74-53.48c1.72-.13,2.86-.1,3.95-.3,18-3.27,32.85-22.15,32.17-41.43-.11-3.07-1.79-7.89-3.88-8.62-2.72-1-6.63,1.27-9.93,2.39a6.72,6.72,0,0,0-2.53,2.35c-10.63,13.28-15.82,28.86-19.81,45.61ZM514.23,181.57c-6.94,1.41-13,2.41-18.87,4a6.58,6.58,0,0,0-3.86,3.93c-2.85,10.41-5.13,21-8,31.38-1.55,5.54.86,10,6.71,10.64,6.45.74,10.49-2.93,13.12-8.08C509.85,210.5,510.5,196,514.23,181.57ZM553.36,23.29C545.45,16.37,534,18.22,528,27.13c-7.11,10.64-6.78,23.28-10.06,35.86,6.4,0,12-.16,17.58.06,3,.12,4-1.09,4.51-3.85C542.27,46.5,546.11,34.42,553.36,23.29ZM455.87,194.12c-9.23,3.27-16.93,6.1-22.53,12.15a26.62,26.62,0,0,0-5.49,10.84c-1.39,5,1.57,9,6.62,10.57,5.3,1.6,11.22-1,13.84-7.73C451.4,212,453.17,203.59,455.87,194.12Z" transform="translate(0 0)"/><path class="cls-2" d="M349,2.26c6.73.26,13.48.07,21.52.07-23.4,27-45.92,52.91-69.48,80,6,0,10.68-.29,15.33,0,16.22,1.18,25.28,10.06,24,26.25-1,13.31-4.72,26.42-7.34,39.6-1.27,6.36-3.07,12.62-4.11,19-1.34,8.24.45,15.59,8.75,21.3-12.31,3.17-23.68,6.54-35.52,2-4.53-1.74-7.53-5.52-7.58-10.3a88,88,0,0,1,1.65-18.68c3.25-15.44,7.18-30.74,10.65-46.14a24.61,24.61,0,0,0,.24-7.94c-1.23-11.32-9.78-17-20.7-13.51-1.36.43-2.68,2.7-3,4.33-6.39,29.26-12.6,58.56-18.87,87.84-.13.63-.32,1.26-.55,2.15H228C240,132,252,75.92,264,19.56c-26,7.8-41.52,41.33-31.77,70-12.68,2.82-24.24-5.33-25.82-18-1.61-12.9,2.39-24.11,10.44-33.84C234.68,16.12,258,4.65,285.65,1.41c2-.23,3.9-.6,5.85-.91h4l8.18,1.4C298.5,26.36,293.35,50.68,288.21,75l.86.43c1-1.22,2.07-2.41,3-3.67,16.36-21.88,32.76-43.72,49-65.69A8.31,8.31,0,0,1,349,2.26Z" transform="translate(0 0)"/><path class="cls-2" d="M208.83,1.66c1.16,17.79-8.75,29.52-26,31-14,1.23-27.47-2.15-41.05-4.63-.63-.12-1.27-.21-2.49-.4-1.9,8.87-3.79,17.61-5.72,26.33q-14,64.91-27.84,129.83c-.68,3.22-1.75,4.46-5.13,4.4-10.31-.2-20.62-.08-31.89-.08C80.58,132.7,92.32,77.87,104.17,22.59c-11.84-.29-22.56,1.21-32.28,7.16-13,8-16.38,21-17.17,34.77-.46,8.3.66,16.69,1.08,25.38-7.59-.23-17.24-.67-21.13-9.68-3.27-7.55-3.26-16.52-4.55-24-2.81,1-6.85,3.19-11.06,3.6C9.35,60.76,3.74,55.06.5,46.5v-8c3.91-13,11.55-23.38,21.85-32,2.4-2,4.77-4,7.15-6h2l2.09,3.6c-3.22,4.72-6.39,9-9.13,13.52-1.84,3-1.94,6.19.81,9.15,3.88,4.19,7.5,8.61,11.12,12.8C45.24,20.05,62.28,9.71,83,4.5c7.68-1.93,15.66-2.7,23.51-4h20c23.91,2,47.51,9.43,71.83,4C201.85,3.72,205.33,2.62,208.83,1.66Z" transform="translate(0 0)"/><path class="cls-1" d="M747.5,83.5c-.23-.6-.43-1.2-.6-1.82-3.27-14.89-9.23-20.18-24.56-20.9C705.56,60,690.85,65,679.09,77.49c-18.45,19.57-25.39,43.61-27,69.68-.6,9.64-10.49,18.64-20.15,18.06-7.15-.43-10.16-4.07-9-11.85,1-6.9,2.65-13.72,4.09-20.55Q634.11,99.4,641.22,66c.13-1,.21-2,.24-3.07h-66c2.12-9.48,3.59-18.37,6.19-26.91a43.72,43.72,0,0,1,7.46-13.93c5.84-7.44,14.11-9,23-7,4.13.92,7.2,3.3,7.5,8-8.11,3-11.38,8.44-9.92,16.44,1.16,6.41,6.06,10,14,10.14,10.22.23,17.5-4.47,19.69-12.7,3.19-12-.86-24.38-10.7-29-6.5-3.07-13.84-4.44-20.83-6.44a50,50,0,0,0-5.35-1h141Z" transform="translate(0 0)"/><path class="cls-1" d="M106.5.5C98.65,1.8,90.67,2.57,83,4.5,62.28,9.7,45.24,20,36.39,39.56c-3.62-4.19-7.24-8.61-11.12-12.8-2.75-3-2.65-6.12-.81-9.15,2.74-4.52,5.91-8.8,9.13-13.52L31.5.5Z" transform="translate(0 0)"/><path class="cls-2" d="M575,301.66a19.32,19.32,0,0,1-19.52-19.14V282c0-11.86,8.49-19.59,21.4-19.49,10.08.08,18.51,9.06,18.43,19.63C595.24,293.14,586.29,301.75,575,301.66Z" transform="translate(0 0)"/><path class="cls-2" d="M710.84,402.34a19.83,19.83,0,0,1,1.1,39.64h-.86a19.35,19.35,0,0,1-19.74-18.94v-.55C691.24,411.1,699.63,402.4,710.84,402.34Z" transform="translate(0 0)"/><path class="cls-1" d="M282.75,377.31c1.23-4.89,1.86-9.52,3.56-13.72,3.67-9,7.64-18,12-26.69a20.59,20.59,0,0,1,7.27-8c2.68-1.64,6.84-2.75,9.57-1.81,1.91.66,3.34,5.1,3.53,8,1.23,19.06-14.15,38.62-32.73,42.08A31,31,0,0,1,282.75,377.31Z" transform="translate(0 0)"/><path class="cls-1" d="M631.41,377.12c3.43-15.19,8.26-29.45,17.13-42a28.82,28.82,0,0,1,9.15-8.15c4.48-2.52,8.65-.41,9.49,4.42C671.2,354.56,649.59,377.74,631.41,377.12Z" transform="translate(0 0)"/><path class="cls-1" d="M522.92,454.17c-1.34,8.86-2.92,16.77-7.58,23.66-3.83,5.67-8.75,7.15-13,4.19s-4.77-9-1-14.2C506.6,460.71,514.39,457.57,522.92,454.17Z" transform="translate(0 0)"/><path class="cls-1" d="M493.58,178.86c3.41-16.05,6.65-31.28,9.88-46.51,3.91-18.37,7.93-36.72,11.63-55.13.68-3.4,2.09-4.29,5.28-4.16,5.27.21,10.55.06,16.48.06-2,9.6-3.76,18.51-5.63,27.4-4.91,23.42-9.9,46.82-14.73,70.26-.65,3.12-1.72,4.86-5.24,5.22C505.5,176.59,499.88,177.81,493.58,178.86Z" transform="translate(0 0)"/><path class="cls-1" d="M691.32,125.38c4-16.75,9.17-32.33,19.78-45.61a6.72,6.72,0,0,1,2.53-2.35c3.3-1.12,7.21-3.34,9.93-2.39,2.09.73,3.77,5.55,3.88,8.62.68,19.28-14.19,38.16-32.17,41.43C694.18,125.28,693,125.25,691.32,125.38Z" transform="translate(0 0)"/><path class="cls-1" d="M553.36,23.29C546.11,34.42,542.27,46.5,540,59.2c-.48,2.76-1.52,4-4.51,3.85-5.58-.22-11.18-.06-17.58-.06,3.28-12.58,2.95-25.22,10.06-35.86C534,18.22,545.5,16.37,553.36,23.29Z" transform="translate(0 0)"/><path class="cls-1" d="M455.87,194.12c-2.7,9.47-4.47,17.91-7.56,25.83-2.62,6.73-8.54,9.33-13.84,7.73-5.05-1.53-8-5.54-6.62-10.57a26.62,26.62,0,0,1,5.49-10.84C438.94,200.22,446.64,197.39,455.87,194.12Z" transform="translate(0 0)"/></svg>