<svg xmlns="http://www.w3.org/2000/svg" width="55" height="55" viewBox="0 0 55 55">
  <g id="Group_58" data-name="Group 58" transform="translate(12.41 10)">
    <path id="Path_22" data-name="Path 22" d="M27.5,0A27.5,27.5,0,1,1,0,27.5,27.5,27.5,0,0,1,27.5,0Z" transform="translate(-12.41 -10)" fill="#453736"/>
    <path id="shopping-bag" d="M32.235,31.182,29.4,7.846a1.063,1.063,0,0,0-1.1-.859H22.979V5.937C22.979,2.663,19.9,0,16.12,0S9.261,2.663,9.261,5.937v1.05H3.939a1.063,1.063,0,0,0-1.1.859L.005,31.182a.881.881,0,0,0,.279.742,1.193,1.193,0,0,0,.824.317H31.132a1.192,1.192,0,0,0,.824-.317A.88.88,0,0,0,32.235,31.182ZM11.478,5.937c0-2.215,2.082-4.017,4.642-4.017s4.642,1.8,4.642,4.017v1.05H11.478ZM2.339,30.322l2.6-21.416H9.261V11.02a1.042,1.042,0,0,0,1.109.96,1.042,1.042,0,0,0,1.109-.96V8.906h9.284V11.02a1.12,1.12,0,0,0,2.217,0V8.906H27.3l2.6,21.416Zm0,0" transform="translate(-0.999)" fill="#fff"/>
  </g>
</svg>
