<svg xmlns="http://www.w3.org/2000/svg" width="40" height="40" viewBox="0 0 40 40">
  <path id="shopping-bag" d="M39.992,38.685,36.479,9.734a1.318,1.318,0,0,0-1.368-1.066h-6.6v-1.3C28.509,3.3,24.691,0,20,0s-8.51,3.3-8.51,7.365v1.3h-6.6A1.318,1.318,0,0,0,3.519,9.734L.007,38.685a1.093,1.093,0,0,0,.346.921A1.48,1.48,0,0,0,1.375,40H38.623a1.479,1.479,0,0,0,1.022-.394A1.092,1.092,0,0,0,39.992,38.685ZM14.24,7.365c0-2.748,2.583-4.984,5.759-4.984s5.759,2.236,5.759,4.984v1.3H14.24ZM2.9,37.619l3.224-26.57h5.363v2.624a1.293,1.293,0,0,0,1.375,1.19,1.293,1.293,0,0,0,1.375-1.19V11.049H25.758v2.624a1.39,1.39,0,0,0,2.751,0V11.049h5.363L37.1,37.619Zm0,0" transform="translate(0.001)" fill="#fff"/>
</svg>
